<svg xmlns="http://www.w3.org/2000/svg" width="38" height="24" viewBox="0 0 38 24">
  <g fill="none" fill-rule="evenodd">
    <polygon fill="#1890FF" fill-rule="nonzero" points="9 3 16.608 9.219 13.702 19.281 4.298 19.281 1.392 9.219" transform="rotate(-90 9 12)"/>
    <polygon fill="#1890FF" fill-rule="nonzero" points="29 3 36.608 9.219 33.702 19.281 24.298 19.281 21.392 9.219" transform="matrix(0 -1 -1 0 41 41)"/>
    <circle cx="19" cy="12" r="10.5" fill="#1890FF" fill-rule="nonzero" stroke="#40A9FF" stroke-width="3"/>
    <path fill="#FFF" d="M15.112,17.564 L15.112,16.204 C18.328,13.324 20.232,11.1 20.232,9.276 C20.232,8.076 19.576,7.356 18.456,7.356 C17.592,7.356 16.872,7.916 16.28,8.572 L15,7.292 C16.088,6.14 17.144,5.5 18.76,5.5 C21,5.5 22.488,6.94 22.488,9.148 C22.488,11.292 20.712,13.596 18.552,15.708 C19.144,15.644 19.928,15.58 20.472,15.58 L23.048,15.58 L23.048,17.564 L15.112,17.564 Z"/>
  </g>
</svg>
