<svg xmlns="http://www.w3.org/2000/svg" width="38" height="24" viewBox="0 0 38 24">
  <g fill="none" fill-rule="evenodd">
    <polygon fill="#9254DE" fill-rule="nonzero" points="9 3 16.608 9.219 13.702 19.281 4.298 19.281 1.392 9.219" transform="rotate(-90 9 12)"/>
    <polygon fill="#9254DE" fill-rule="nonzero" points="29 3 36.608 9.219 33.702 19.281 24.298 19.281 21.392 9.219" transform="matrix(0 -1 -1 0 41 41)"/>
    <circle cx="19" cy="12" r="10.5" fill="#9254DE" fill-rule="nonzero" stroke="#B37FEB" stroke-width="3"/>
    <path fill="#FFF" d="M18.968,18.288 C17.096,18.288 15.832,17.584 15,16.64 L16.104,15.152 C16.808,15.84 17.672,16.368 18.744,16.368 C19.944,16.368 20.76,15.776 20.76,14.72 C20.76,13.552 20.072,12.832 17.496,12.832 L17.496,11.136 C19.672,11.136 20.376,10.384 20.376,9.328 C20.376,8.4 19.8,7.856 18.792,7.84 C17.944,7.856 17.256,8.256 16.552,8.896 L15.352,7.456 C16.376,6.56 17.512,6 18.904,6 C21.192,6 22.744,7.12 22.744,9.152 C22.744,10.432 22.024,11.36 20.76,11.856 L20.76,11.936 C22.104,12.304 23.128,13.296 23.128,14.848 C23.128,17.024 21.224,18.288 18.968,18.288 Z"/>
  </g>
</svg>
