<svg xmlns="http://www.w3.org/2000/svg" viewBox="0 0 48 24"><defs><style>.cls-1{fill:#1fbb08;}.cls-2{fill:#1ca008;}.cls-3{font-size:11px;fill:#fff;font-family:SourceHanSansSC-Bold-GBpc-EUC-H, Source Han Sans SC;font-weight:700;}.cls-4{letter-spacing:-0.01em;}.cls-5{letter-spacing:-0.02em;}</style></defs><title>画板 33</title><g id="图层_20" data-name="图层 20"><path class="cls-1" d="M37.91,4.85l-7.47,4a2,2,0,0,0-1.05,1.93l.78,9.15a2,2,0,0,0,2,1.84l8.21.09a2,2,0,0,0,1.76-1L46,14.2a2,2,0,0,0-.18-2.26L40.41,5.35A2,2,0,0,0,37.91,4.85Z"/><path class="cls-1" d="M10.06,4.68l7.49,4.06a2,2,0,0,1,1,1.92l-.76,9.27a2,2,0,0,1-2,1.84l-9.09.06a2,2,0,0,1-1.83-1.16L1.86,14a2,2,0,0,1,.26-2.09L7.55,5.18A2,2,0,0,1,10.06,4.68Z"/><rect class="cls-1" x="7" y="13.8" width="33" height="8"/><path class="cls-2" d="M22.69,2,15.17,8.29a2,2,0,0,0-.65,2.1l3,10.64a2,2,0,0,0,1.95,1.49h9.08A2,2,0,0,0,30.49,21l3-10.64a2,2,0,0,0-.65-2.1L25.31,2A2,2,0,0,0,22.69,2Z"/><text class="cls-3" transform="translate(6.36 17.09)"><tspan class="cls-4">R</tspan><tspan class="cls-5" x="7.41" y="0">a</tspan><tspan x="13.71" y="0">ting</tspan></text></g></svg>